PathFileType	4	(X/Y/Z)	55_2_95_p0_0-208.trc
DataRate	CameraRate	NumFrames	NumMarkers	Units	OrigDataRate	OrigDataStartFrame	OrigNumFrames
48.0	48.0	5	27	m	48.0	156	209
Frame#	Time	RHip			RKnee			RAnkle			RBigToe			RSmallToe			RHeel			LHip			LKnee			LAnkle			LBigToe			LSmallToe			LHeel			Neck			Head			Nose			RShoulder			RElbow			RWrist			RThumb			RIndex			RPinky			LShoulder			LElbow			LWrist			LThumb			LIndex			LPinky			
		X1	Y1	Z1	X2	Y2	Z2	X3	Y3	Z3	X4	Y4	Z4	X5	Y5	Z5	X6	Y6	Z6	X7	Y7	Z7	X8	Y8	Z8	X9	Y9	Z9	X10	Y10	Z10	X11	Y11	Z11	X12	Y12	Z12	X13	Y13	Z13	X14	Y14	Z14	X15	Y15	Z15	X16	Y16	Z16	X17	Y17	Z17	X18	Y18	Z18	X19	Y19	Z19	X20	Y20	Z20	X21	Y21	Z21	X22	Y22	Z22	X23	Y23	Z23	X24	Y24	Z24	X25	Y25	Z25	X26	Y26	Z26	X27	Y27	Z27	
156	3.25	0.3271385155136809	0.5522597500095379	0.7783084765619165	0.3127246823377101	0.5698654054168126	1.1963356692739415	0.30985897123640027	0.6334113853227175	1.6465991536009918	0.2962266379640648	0.4168823160137061	1.6471266356975072	0.3552293674151213	0.4407640602498767	1.6514522358437376	0.29745239888926794	0.667060451508758	1.6900861652417145	0.11202949314587099	0.5941028187727785	0.7938165688395561	0.12781252063691784	0.6102260188625414	1.2045229709621692	0.14416469028602347	0.5960656962907412	1.5982554028875489	0.11943144051344143	0.39088600657100714	1.6089477310629696	0.07489967594581858	0.4505289570440723	1.6426134073562915	0.1557381840077796	0.6587125484185687	1.67905167583377	0.21959559333693374	0.5964411636236349	0.21156326621951102	0.22030763393864616	0.5580530266504466	-0.045602994111549076	0.1956968829478581	0.46913762658898406	0.07837152689068207	0.3734454140387013	0.5472657206521807	0.29359248658470405	0.45782646231627994	0.5054942912637351	0.5498297108434596	0.5228964914588295	0.3872936354789789	0.7671292327190924	0.5084210313654751	0.3143115324425479	0.8956592741647348	0.5302460220357931	0.33241707907737966	0.9189284955330712	0.5477887248035216	0.37835657900347547	0.9020783137958621	0.056866656676996384	0.5867723520627055	0.3085893438219587	-0.044126904871325	0.5751395449488617	0.5468994556219701	-0.14692596051406873	0.5243691007543748	0.7788950251997713	-0.11335784349712144	0.5807933493617409	0.9257471562815269	-0.1499030481957284	0.5185257752740904	0.9314836633482977	-0.17497264056689416	0.4985107931334411	0.8975067038437884
157	3.2708333333333335	0.32483545855755475	0.5686084177994661	0.7840551008007746	0.31359832716552516	0.5701519356999376	1.2012548115464303	0.3099323772038755	0.6334528175174418	1.6465883549168954	0.30180264482058033	0.4283414830465233	1.6495681375708509	0.3603425704140718	0.4536309787591837	1.6594653093963292	0.29319820926858803	0.6533787107793236	1.674901488089739	0.11174189271539309	0.5954467399795753	0.790481063420852	0.12775679565866813	0.6103645046971176	1.20452950288151	0.13996311392273522	0.6112549438825028	1.6077396843613618	0.11931245402592949	0.3910631809331328	1.6090605879242985	0.07578637211784828	0.4503538038731681	1.6388987115785691	0.156805277418157	0.6583783615407687	1.672702915118632	0.21962353917917088	0.5965142178629611	0.2116205858444978	0.22034556295778773	0.5580446908433533	-0.04565087761799475	0.1956969449841143	0.4691438291156254	0.07839563709622314	0.37354196144032054	0.5473665215551706	0.2936975712416599	0.45757869972406584	0.5051968477958422	0.550007481654032	0.5170356895441794	0.3917822707222831	0.7735063040260168	0.48115643380622974	0.29717080395537826	0.8880366105545765	0.5130685173417118	0.32330694246763064	0.9195069082878591	0.5408265362897509	0.3735440172561315	0.907724762881591	0.060159769362519516	0.5985468858976659	0.3107972226987709	-0.03644554714998143	0.5908025356730356	0.5551744052023103	-0.13414237181457347	0.5266710008874362	0.7839001194607362	-0.08374045031550784	0.5127482072598549	0.9110549418192198	-0.13118432350850023	0.4950211311045326	0.9351697059015793	-0.16846640994379386	0.48584067545405685	0.8965000905226843
158	3.2916666666666665	0.33002538412838256	0.5801138034695441	0.7928960529036012	0.31812315114177414	0.5695096832489542	1.2019084082987737	0.3088566709987521	0.6323923517559548	1.6413608157294541	0.30025835914660254	0.4291170998058646	1.6410230339796286	0.3636612917631007	0.46368816114354555	1.6622945533499334	0.293342188823499	0.6534798251180275	1.675108471374968	0.10865994916342724	0.6116998487719877	0.8019598307794666	0.12343424604691425	0.6089783662517512	1.2041886008680984	0.13982466987158845	0.6108462076688582	1.6074074419296946	0.11904324015277733	0.39158077647295	1.6092751499994231	0.07154625256209207	0.4639242722224007	1.648354168555942	0.15679796595289378	0.6581241134117775	1.6719561377793086	0.219673972191847	0.5966270231303648	0.21166847406552547	0.22036973109421507	0.5580744418057677	-0.04558293685709587	0.19949985760334046	0.47898793588934024	0.07942700317111007	0.37365239653188115	0.547610444793774	0.293734875684481	0.4505259777813198	0.5178996082723641	0.5613363821441216	0.4935166023682851	0.39647979090737506	0.7798315987265386	0.4374412889956325	0.34112614670395064	0.9120797655068082	0.4648855271614053	0.2841051252342005	0.902170639764732	0.502647294078171	0.3435263252314778	0.9113276025818324	0.06087677368408257	0.599791361337826	0.3111160035921877	-0.024241679128673286	0.592147697796085	0.5555987828819657	-0.08699551700497875	0.48709534057966897	0.7818904218275414	-0.05485478103003414	0.4771021363916193	0.9131769972366681	-0.09202384893059722	0.45714850697435633	0.9265233827113285	-0.1386038875940364	0.49658766846806424	0.9211723836857768
159	3.3125	0.3400160871347492	0.5944089566189517	0.8024758826087025	0.3169275546468292	0.5705317534537422	1.1934550976864513	0.30999116705968927	0.6336474801399122	1.6467792621972723	0.29803561977187665	0.4448857989148266	1.6553504632456837	0.36057914111972444	0.4544698933634133	1.6592653061273974	0.29794063426997897	0.6656563348786381	1.6825078905442847	0.11336422674585804	0.6144069913500708	0.8121333780341183	0.12776928153319178	0.6110984303499526	1.2050899439054792	0.13560835476303806	0.6094507810412653	1.6065251752177123	0.11891529578045218	0.39181976025419746	1.609239804572368	0.07165230668104572	0.46416077087723245	1.648404946179843	0.15699041193886365	0.6585310061454718	1.672528483669863	0.21970182095791818	0.5966529750245216	0.21170279107767986	0.22038368245546253	0.5581596620823315	-0.04559039552278921	0.1958154632692554	0.46922707228749466	0.07831424489918962	0.3736496678243063	0.5476126470931167	0.29380112198334984	0.4409112552285903	0.5053018144601708	0.5579912675615252	0.46068830941882555	0.388148239322661	0.7812654450920465	0.42210103718937103	0.35781372247385956	0.9108740557538887	0.44825317140894316	0.28667797515080673	0.9004150208674518	0.47619886445272597	0.32144228436167127	0.9066054064069072	0.06098063699393872	0.5997210355048621	0.3111241651643619	-0.02418337253046331	0.5927369388712314	0.5519883359635844	-0.0766487197259313	0.4775261139026708	0.7950144052544957	-0.02975326155566313	0.48258101757916966	0.9202856462397391	-0.06730499827157298	0.4598331330881327	0.927731789461339	-0.10081165129551976	0.44686089536027573	0.9099032443295036
160	3.3333333333333335	0.3337838400997946	0.5665835961354507	0.7929530456493845	0.31680913732430155	0.5706737001405704	1.1935903324446955	0.31199249511016675	0.6150976091992348	1.6301392105478962	0.2972688604916078	0.442037831899019	1.6542172611139054	0.3605162481845166	0.4542144526902979	1.6592075396135364	0.2982155319746176	0.6656610451748458	1.6825160383462479	0.11293956514877625	0.5994697204368533	0.8077664552737338	0.12359283430092788	0.6078485072210824	1.2079887174536725	0.13557501464465083	0.6096240820951019	1.6066767512678102	0.11881440930141217	0.392466005713514	1.6094905184076846	0.07165671322250189	0.4643335856474239	1.648457137755536	0.15721387079798996	0.658675987150775	1.6722692415427511	0.21970769455588512	0.5966666849760587	0.21171589036352587	0.22038383307126932	0.5581120874259481	-0.04548687101527108	0.19949444996730045	0.4789837110475303	0.07942702040282143	0.373630143576616	0.5478343328337993	0.29384494372260955	0.43777266643914786	0.5177385173003779	0.5620678417992786	0.4377446245875223	0.3865247690056512	0.7854954467006855	0.39298969419164653	0.3016454737080736	0.8995183719483743	0.4118445554342193	0.3062599218906024	0.9141523732945726	0.44495295285149006	0.37426905290830287	0.9304830051797981	0.060911761267506914	0.600111620517939	0.3073319835299071	-0.023736980138224673	0.5907919596234014	0.5595833732037645	-0.059806303428106174	0.47910562232329174	0.8039770840125114	-0.0020353802604321136	0.4197271398315352	0.8933236767536106	-0.027963895391678272	0.43885471057882586	0.9194671054243364	-0.07880932779059291	0.45668144698231516	0.9182011948975973
